<svg id="Layer_1" data-name="Layer 1" xmlns="http://www.w3.org/2000/svg" viewBox="0 0 491.01 495"><defs><style>.cls-1{fill:#d4e1f4;}.cls-2{fill:#0635c9;}.cls-3{fill:#1ae5be;}</style></defs><title>wrong</title><path class="cls-1" d="M182.67,287.43a67.34,67.34,0,0,1,3.87-132.49,67.34,67.34,0,1,0,0,133.17C185.24,287.92,184,287.69,182.67,287.43Z" transform="translate(-1.99)"/><path class="cls-1" d="M318.44,12a68.42,68.42,0,0,0-10,.74,67.34,67.34,0,0,1,3.87,132.49c-1.28.27-2.57.49-3.86.68A67.33,67.33,0,1,0,318.44,12Z" transform="translate(-1.99)"/><path class="cls-2" d="M487,196.87H432.34a6,6,0,0,0-6,6v14.07h-7.7c-5.9,0-12-2-18.78-6.15a36.74,36.74,0,0,1-1.76-4.67c-3-8.86-8.45-25.37-30.67-25.37H338.68V156a79.31,79.31,0,1,0-40.48,0v24.74H261.49a6,6,0,0,0-6,6v.58c0,15.7,6.59,27.64,17.29,33a20.23,20.23,0,0,0-9.18,34.44,21.69,21.69,0,0,0,.26,31A21.2,21.2,0,0,0,268,319.58a21.18,21.18,0,0,0,17.45,33.21H330c16.92,0,33.32-.76,48-9.89A79,79,0,0,1,419.72,331h6.63v11.76a6,6,0,0,0,6,6H487a6,6,0,0,0,6-6V202.86A6,6,0,0,0,487,196.87ZM318.44,158.62a80.15,80.15,0,0,0,8.26-.43v61.5H310.17v-61.5A80.21,80.21,0,0,0,318.44,158.62ZM251.1,79.31A67.34,67.34,0,1,1,276,131.59,67.33,67.33,0,0,1,251.1,79.31Zm47.09,113.4v18.61H286.27c-13.5,0-17.36-11-18.42-18.61ZM419.72,319a91,91,0,0,0-48,13.69c-12,7.47-26.61,8.09-41.72,8.09H285.45a9.22,9.22,0,1,1,0-18.44h24a6,6,0,0,0,0-12h-31a9.29,9.29,0,1,1,0-18.58H300a6,6,0,1,0,0-12H279a9.76,9.76,0,0,1,0-19.53h21a6,6,0,1,0,0-12h-8.48a5.88,5.88,0,0,0-.87-.07H277.5a8.3,8.3,0,0,1,0-16.61h55.19a17.76,17.76,0,0,0,17.68-15.85,6,6,0,0,0-11.7-2.34V192.71h28.77c12.62,0,16,7.12,19.31,17.18,1.54,4.61,2.86,8.6,6.34,10.77,8.86,5.54,17.23,8.24,25.56,8.24h7.7V319ZM481,336.78h-42.7V208.85H481Z" transform="translate(-1.99)"/><path class="cls-2" d="M335.71,105.05a6,6,0,0,0,8.47-8.47L326.9,79.31,344.18,62a6,6,0,0,0-8.47-8.47L318.44,70.84,301.16,53.57A6,6,0,1,0,292.69,62L310,79.31,292.7,96.58a6,6,0,1,0,8.47,8.47l17.27-17.27Z" transform="translate(-1.99)"/><path class="cls-3" d="M255.87,221.52a79.31,79.31,0,1,0-99.55,76.69v24.74H127.55c-22.22,0-27.72,16.51-30.67,25.37A36.6,36.6,0,0,1,95.12,353c-6.74,4.14-12.88,6.15-18.78,6.15h-7.7V345.07a6,6,0,0,0-6-6H8a6,6,0,0,0-6,6V485a6,6,0,0,0,6,6H62.66a6,6,0,0,0,6-6V473.22h6.63A79.12,79.12,0,0,1,117,485.11c14.72,9.13,31.12,9.89,48,9.89h44.51A21.18,21.18,0,0,0,227,461.79a21.2,21.2,0,0,0,4.14-33.88,21.7,21.7,0,0,0,.26-31,20.23,20.23,0,0,0-9.18-34.43c10.71-5.31,17.29-17.25,17.29-33v-.59a6,6,0,0,0-6-6H196.8V298.21A79.63,79.63,0,0,0,255.87,221.52Zm-71,140.38H168.3V300.4a79.68,79.68,0,0,0,16.53,0Zm-75.6-140.38a67.34,67.34,0,1,1,24.9,52.29A67.33,67.33,0,0,1,109.23,221.52ZM56.67,479H14V351.06h42.7ZM225.8,382.18a8.31,8.31,0,0,1-8.3,8.3H204.34a5.89,5.89,0,0,0-.87.07H195a6,6,0,0,0,0,12h21a9.76,9.76,0,0,1,0,19.53H195a6,6,0,0,0,0,12h21.52a9.29,9.29,0,1,1,0,18.58h-31a6,6,0,0,0,0,12h24.05a9.22,9.22,0,1,1,0,18.44H165c-15.11,0-29.68-.62-41.72-8.09a91.07,91.07,0,0,0-48-13.69H68.65V371.11h7.7c8.33,0,16.69-2.69,25.56-8.24,3.48-2.17,4.81-6.16,6.34-10.77,3.35-10.06,6.7-17.18,19.31-17.18h28.77v20.76A6,6,0,0,0,144.63,358a17.75,17.75,0,0,0,17.68,15.85H217.5A8.31,8.31,0,0,1,225.8,382.18Zm1.34-47.25c-1.05,7.59-4.91,18.61-18.42,18.61H196.8V334.92Z" transform="translate(-1.99)"/><path class="cls-3" d="M170.42,246.5,211.9,205a6,6,0,1,0-8.47-8.47l-37.24,37.25-16.51-16.51a6,6,0,1,0-8.47,8.47L162,246.5A6,6,0,0,0,170.42,246.5Z" transform="translate(-1.99)"/></svg>