<svg width="100" height="100" viewBox="0 0 100 100" fill="none" xmlns="http://www.w3.org/2000/svg">
<g clip-path="url(#clip0)">
<path d="M31.2199 73.5633C32.6277 73.5633 35.6195 74.5111 38.8225 75.702C39.0861 75.8 39.3668 75.6043 39.3668 75.3231V63.866C39.3668 62.1922 38.0098 60.8352 36.3359 60.8352H25.0662C24.7857 60.8352 24.5902 60.5559 24.6867 60.2924C25.7941 57.2709 26.6506 54.5016 26.6506 53.1633C26.6506 49.3777 23.5818 46.309 19.7963 46.309C16.0107 46.309 12.942 49.3777 12.942 53.1633C12.942 54.5016 13.7984 57.2707 14.9061 60.2924C15.0025 60.5559 14.8072 60.8352 14.5266 60.8352H3.23301C1.55898 60.8352 0.202148 62.1922 0.202148 63.866V96.969C0.202148 98.6428 1.55918 99.9998 3.23301 99.9998H36.3359C38.01 99.9998 39.3668 98.6428 39.3668 96.969V85.5119C39.3668 85.2307 39.0861 85.035 38.8225 85.133C35.6195 86.3238 32.6277 87.2717 31.2199 87.2717C27.4344 87.2717 24.3656 84.2029 24.3656 80.4174C24.3656 76.632 27.4344 73.5633 31.2199 73.5633V73.5633Z" fill="#EAAFAF"/>
<path d="M38.8217 85.1332C37.2637 85.7125 35.7574 86.233 34.4574 86.6162V92.0608C34.4574 93.7348 33.1004 95.0916 31.4266 95.0916H0.201172V96.9691C0.201172 98.643 1.5582 100 3.23223 100H36.3352C38.009 100 39.366 98.643 39.366 96.9691V85.5121C39.366 85.2309 39.0853 85.0352 38.8217 85.1332Z" fill="#D5889B"/>
<path d="M36.3349 60.8354H34.4574V74.2191C35.7574 74.6023 37.2636 75.1228 38.8217 75.7021C39.0853 75.8002 39.366 75.6045 39.366 75.3232V63.8662C39.366 62.1922 38.009 60.8354 36.3349 60.8354Z" fill="#D5889B"/>
<path d="M47.0451 12.74C45.7071 12.74 42.9377 13.5965 39.916 14.7041C39.6526 14.8006 39.3733 14.6053 39.3733 14.3246V3.03086C39.3733 1.35703 38.0164 0 36.3424 0H3.23948C1.56565 0 0.208618 1.35703 0.208618 3.03086V36.1338C0.208618 37.8078 1.56565 39.1646 3.23948 39.1646H14.6965C14.9778 39.1646 15.1735 38.884 15.0754 38.6203C13.8846 35.4174 12.9367 32.4256 12.9367 31.0178C12.9367 27.2322 16.0055 24.1635 19.791 24.1635C23.5766 24.1635 26.6453 27.2322 26.6453 31.0178C26.6453 32.4256 25.6973 35.4174 24.5067 38.6203C24.4086 38.884 24.6043 39.1646 24.8856 39.1646H36.3426C38.0166 39.1646 39.3735 37.8076 39.3735 36.1338V24.8641C39.3735 24.5836 39.6528 24.3881 39.9162 24.4846C42.9377 25.592 45.7071 26.4484 47.0453 26.4484C50.8309 26.4484 53.8996 23.3797 53.8996 19.5941C53.8994 15.8088 50.8307 12.74 47.0451 12.74Z" fill="#AAD880"/>
<path d="M48.7714 12.9596C48.9145 13.5111 48.9909 14.0895 48.9909 14.6857C48.9909 18.4713 45.9221 21.54 42.1366 21.54C40.7985 21.54 38.029 20.6836 35.0075 19.5762C34.744 19.4797 34.4647 19.675 34.4647 19.9557V31.2254C34.4647 32.8994 33.1077 34.2563 31.4339 34.2563H25.9893C25.6061 35.5563 25.0856 37.0625 24.5063 38.6205C24.4083 38.8842 24.604 39.1648 24.8852 39.1648H36.3423C38.0161 39.1648 39.3731 37.8078 39.3731 36.134V24.8643C39.3731 24.5838 39.6524 24.3883 39.9159 24.4848C42.9374 25.5922 45.7067 26.4486 47.045 26.4486C50.8305 26.4486 53.8993 23.3799 53.8993 19.5943C53.8995 16.4051 51.7212 13.725 48.7714 12.9596V12.9596Z" fill="#80CB8E"/>
<path d="M96.7677 0H63.665C61.991 0 60.6342 1.35703 60.6342 3.03086V14.4879C60.6342 14.7691 60.9148 14.9648 61.1785 14.8668C64.3814 13.676 67.3732 12.7281 68.781 12.7281C72.5666 12.7281 75.6353 15.7969 75.6353 19.5824C75.6353 23.368 72.5666 26.4367 68.781 26.4367C67.3732 26.4367 64.3814 25.4889 61.1785 24.298C60.9148 24.2 60.6342 24.3957 60.6342 24.677V36.134C60.6342 37.808 61.9912 39.1648 63.665 39.1648H74.9347C75.2152 39.1648 75.4107 39.4441 75.3142 39.7076C74.2068 42.7291 73.3504 45.4984 73.3504 46.8367C73.3504 50.6223 76.4191 53.691 80.2047 53.691C83.9902 53.691 87.059 50.6223 87.059 46.8367C87.059 45.4986 86.2025 42.7293 85.0951 39.7076C84.9986 39.4441 85.1939 39.1648 85.4746 39.1648H96.7683C98.4424 39.1648 99.7992 37.8078 99.7992 36.134V3.03086C99.7988 1.35703 98.4418 0 96.7677 0V0Z" fill="#FFD064"/>
<path d="M96.7678 0H94.8902V31.2254C94.8902 32.8994 93.5332 34.2562 91.8594 34.2562H80.5656C80.285 34.2562 80.0897 34.5355 80.1861 34.799C81.2936 37.8205 82.15 40.5898 82.15 41.9281C82.15 45.7137 79.0813 48.7824 75.2957 48.7824C74.6994 48.7824 74.1209 48.7061 73.5693 48.5629C74.3348 51.5127 77.0148 53.6908 80.2041 53.6908C83.9897 53.6908 87.0584 50.6221 87.0584 46.8365C87.0584 45.4982 86.202 42.7289 85.0945 39.7074C84.998 39.4439 85.1934 39.1646 85.474 39.1646H96.7678C98.4418 39.1646 99.7986 37.8076 99.7986 36.1338V3.03086C99.7988 1.35703 98.4418 0 96.7678 0Z" fill="#ECBE6B"/>
<path d="M85.3035 60.8354C85.0222 60.8354 84.8265 61.116 84.9246 61.3797C86.1154 64.5826 87.0632 67.5744 87.0632 68.9822C87.0632 72.7678 83.9945 75.8365 80.2089 75.8365C76.4234 75.8365 73.3546 72.7678 73.3546 68.9822C73.3546 67.5744 74.3025 64.5826 75.4933 61.3797C75.5914 61.116 75.3957 60.8354 75.1144 60.8354H63.6574C61.9835 60.8354 60.6265 62.1924 60.6265 63.8662V75.1359C60.6265 75.4164 60.3472 75.6119 60.0837 75.5154C57.0623 74.408 54.2929 73.5516 52.9546 73.5516C49.1691 73.5516 46.1003 76.6203 46.1003 80.4059C46.1003 84.1914 49.1691 87.2602 52.9546 87.2602C54.2927 87.2602 57.0621 86.4037 60.0837 85.2961C60.3472 85.1996 60.6265 85.3949 60.6265 85.6756V96.9693C60.6265 98.6432 61.9835 100 63.6574 100H96.7603C98.4341 100 99.7912 98.6432 99.7912 96.9693V63.8662C99.7912 62.1924 98.4341 60.8354 96.7603 60.8354H85.3035Z" fill="#A6CCE1"/>
<path d="M96.7605 60.8354H94.883V92.0606C94.883 93.7346 93.5259 95.0914 91.8521 95.0914H60.6267V96.9689C60.6267 98.643 61.9837 99.9998 63.6576 99.9998H96.7605C98.4345 99.9998 99.7914 98.6428 99.7914 96.9689V63.8662C99.7914 62.1922 98.4343 60.8354 96.7605 60.8354V60.8354Z" fill="#7FC1E7"/>
</g>
<defs>
<clipPath id="clip0">
<rect width="100" height="100" fill="white"/>
</clipPath>
</defs>
</svg>
