<?xml version="1.0" encoding="utf-8"?>
<!-- Generator: Adobe Illustrator 21.0.0, SVG Export Plug-In . SVG Version: 6.00 Build 0)  -->
<svg version="1.1" id="Layer_1" xmlns="http://www.w3.org/2000/svg" xmlns:xlink="http://www.w3.org/1999/xlink" x="0px" y="0px"
	 viewBox="0 0 1920 1080" style="enable-background:new 0 0 1920 1080;" xml:space="preserve">
<style type="text/css">
	.st0{fill:#EFE3BF;}
</style>
<g>
	<path class="st0" d="M882.5,757.6c3.1,0.1,6.1-0.5,9.1-0.5c1.9,0,3.7-0.3,5.6,0.4c1.4,0.5,2.5,1.4,3.4,2.6c0.5,0.7,0.7,1.6,0.2,2.4
		c-0.5,0.8-1.2,0.9-2.2,0.8c-2.5-0.2-4.9,0.2-7.4,0.3c-4.9,0.2-9.8,0.4-14.7-0.1c-2.1-0.2-4.1-0.3-6,0.8c-1,0.6-1.6,1.5-2.3,2.3
		c-0.4,0.5,0.3,0.9,0.8,0.8c2.4-0.1,4.7,0.4,7,0.6c6.3,0.6,12.5,0.3,18.8,0.9c1,0.1,2,0.3,2.9,0.7c1.5,0.7,2.4,2.3,2.2,4
		c-0.1,1.1-0.7,1.5-1.8,1.3c-0.9-0.2-1.8-0.5-2.7-0.6c-0.9-0.2-1.6,0.2-1.8,1.2c-0.2,1.1-0.9,1.5-2,1.5c-0.5,0-1,0-1.4-0.2
		c-3.8-1.2-7.8-1.5-11.7-2.4c-0.6-0.1-0.9,0.2-1.2,0.7c-1.1,2-2.6,2.5-4.7,1.8c-4.4-1.4-8.9-2.1-13.6-2c-4.1,0.1-8.2-0.1-12.1-1.2
		c-0.7-0.2-1.2-0.6-1.5-1.2c-0.7-1.3-1.2-2.7-1.5-4.2c-0.2-1.1-0.6-2.1-1.1-3.1c-1.2-2.4-2.9-3.6-5.8-3.6c-4.9,0-9.9-0.2-14.7,0.2
		c-6.2,0.5-12.4,0.8-18.5,1.3c-3.5,0.2-7.1,0.1-10.7,0.3c-3.8,0.2-7.6,0.1-11.4,0.2c-6.2,0-12.5,0.2-18.7-0.5
		c-6.5-0.7-13-2-18.6-5.6c-2.4-1.5-4.3-3.5-6.2-5.6c-2.8-3.1-4.3-6.8-5.8-10.5c-0.8-2-1.4-4-1.7-6.1c-0.6-4.5-0.4-9,1-13.4
		c2.5-7.6,7.7-12.6,14.7-16.3c4.7-2.4,9.6-3.1,14.7-2.4c4.6,0.6,8.4,2.8,10.1,7.5c1.5,4.3,0.2,9.5-3.6,12.4c-1.3,0.9-2.6,1.9-3.7,3
		c-1.1,1-0.9,1.6,0.4,2.3c3.4,1.8,7.1,1.9,10.8,2.3c3.9,0.5,7.8,0.9,11.6,1.8c3.4,0.9,6.7,1.8,9.8,3.5c2.7,1.5,5.6,2.7,7.9,4.9
		c0.4,0.3,0.8,0.6,1.3,0.3c0.4-0.3,0.1-0.8,0-1.2c-0.1-0.4-0.2-0.9-0.2-1.3c0-4.1-0.1-8.2,0-12.4c0.1-7.6,0.9-15.1,2.3-22.5
		c0.7-3.5,1.5-7.1,2.6-10.5c1.6-5,3.2-10,5.8-14.7c2-3.6,4.2-7,6.7-10.2c1.7-2.1,3.3-4.3,5-6.4c1.9-2.3,3.9-4.4,5.7-6.7
		c2.2-2.7,4-5.5,5.9-8.4c3-4.7,5.1-9.7,6.7-14.9c0.9-2.8,1.3-5.8,1.5-8.7c0.1-1.2-0.3-1.5-1.6-1.5c-2.4,0-4.7,0.1-7-0.6
		c-1.9-0.6-3.9-1.2-5.5-2.3c-2.9-2.1-4.6-5-4.7-8.7c-0.1-4.1,1.2-7.6,3.9-10.6c1.8-2,4-3.5,6.6-4.5c2.2-0.8,4.4-1.6,6.6-2
		c1.5-0.2,3-0.2,4.5-0.3c0.6,0,1.1,0.1,1.7,0.1c2.5,0.1,2.6-0.1,2-2.5c-0.5-2.1-0.8-4.4,0-6.5c1.2-3,3.7-4.1,6.7-4.5
		c3.6-0.4,7.2,0.1,10.7,1.2c0.9,0.3,1.6,0.1,2.3-0.6c2.9-2.9,6.5-4.2,10.4-4.8c3.4-0.5,6.7-0.4,10.1,0c2.7,0.4,5.4,0.8,8.1,1.6
		c3.8,1.1,7.5,2.6,11.2,4.2c3,1.3,5.9,2.6,8.8,4.1c3.3,1.7,6.6,3.6,9.4,6.1c0.8,0.7,1.7,1.2,2.4,2c2.2,2.3,2.4,5.2,2.4,8.2
		c0,1.1,0,2.2-0.7,3.2c-0.3,0.4-0.2,0.9-0.1,1.4c0.4,3.3-1,5.9-3.5,7.8c-1.9,1.5-4,2.6-5.9,4.1c-1.8,1.3-3.4,2.9-4.6,4.8
		c-1.6,2.4-3.2,4.8-4.3,7.6c-1,2.3-1.2,4.8-1.4,7.3c-0.3,2.5-0.3,5.1-0.4,7.6c-0.2,3.3,0.1,6.7,0.6,10c0.1,0.5,0.2,1,0.2,1.5
		c0.1,1.4,0.9,2.2,2.2,2.6c1.8,0.5,3.5,1.1,5.2,1.9c3,1.5,3.9,4.6,3.4,7.5c-0.2,1.3-1.3,2.2-2.5,2.7c-0.7,0.3-1.4,0.1-1.9-0.5
		c-0.4-0.5-0.8-1.1-1.2-1.6c-0.2-0.3-0.5-0.6-0.9-0.4c-0.4,0.2-0.4,0.6-0.3,0.9c0.1,0.3,0.2,0.6,0.4,0.9c3,4.3-0.3,9.1-4.2,10
		c-0.4,0.1-0.8,0.2-1.2,0.2c-0.7,0.1-1.3-0.1-1.7-0.7c-0.6-0.7-0.6-3.9,0-4.7c0.1-0.2,0.3-0.4,0.4-0.6c0.2-0.3,0.4-0.6,0.2-1
		c-0.2-0.4-0.7-0.4-1.1-0.4c-0.3,0-0.6,0.1-0.8,0.3c-1.9,1-3.9,1.9-5.7,3c-1.1,0.6-1.4,1.9-1.7,3c-1,3.6-2,7.3-3,10.9
		c-1.4,4.9-2.6,9.8-4.2,14.6c-2.2,6.7-4.5,13.3-7.5,19.7c-2.6,5.7-5.7,11-9.6,16c-1.9,2.4-3.9,4.9-5.1,7.8c-1,2.4-1.3,4.9-1.2,7.5
		c0,0.8,0.6,1.2,1.4,1.3C877.5,757.4,880,757.5,882.5,757.6z"/>
</g>
</svg>
