<svg id="Layer_1" data-name="Layer 1" xmlns="http://www.w3.org/2000/svg" xmlns:xlink="http://www.w3.org/1999/xlink" viewBox="0 0 206.12 202.43"><defs><style>.cls-1{fill:url(#linear-gradient);}</style><linearGradient id="linear-gradient" x1="801.04" y1="612.37" x2="895.9" y2="776.69" gradientUnits="userSpaceOnUse"><stop offset="0.02" stop-color="#e54e4e"/><stop offset="0.14" stop-color="#ea6e6e"/><stop offset="0.26" stop-color="#ed8787"/><stop offset="0.37" stop-color="#ef9696"/><stop offset="0.46" stop-color="#f09b9b"/><stop offset="0.6" stop-color="#ef9797"/><stop offset="0.71" stop-color="#ee8c8c"/><stop offset="0.83" stop-color="#eb7a7a"/><stop offset="0.94" stop-color="#e86060"/><stop offset="1" stop-color="#e54e4e"/></linearGradient></defs><title>mish-active</title><path class="cls-1" d="M882.45,757.63c3.05.09,6.07-.52,9.1-.51,1.86,0,3.75-.25,5.58.44a7.2,7.2,0,0,1,3.37,2.58,2,2,0,0,1-2,3.19,56.8,56.8,0,0,0-7.41.27,111,111,0,0,1-14.73-.11c-2.09-.2-4.13-.31-6,.83a9.58,9.58,0,0,0-2.34,2.35c-.41.49.29.86.77.84a51,51,0,0,1,7,.58c6.25.57,12.55.31,18.8.85a8.63,8.63,0,0,1,2.9.71,3.89,3.89,0,0,1,2.22,4c-.15,1.15-.66,1.51-1.82,1.27-.9-.19-1.78-.46-2.68-.62a1.34,1.34,0,0,0-1.77,1.15,1.67,1.67,0,0,1-2,1.46,5.61,5.61,0,0,1-1.42-.19c-3.82-1.19-7.81-1.52-11.69-2.39-.63-.14-.94.16-1.23.67-1.15,2-2.55,2.49-4.74,1.79a42.08,42.08,0,0,0-13.58-2,42.33,42.33,0,0,1-12.13-1.17,2.3,2.3,0,0,1-1.5-1.24,14.66,14.66,0,0,1-1.5-4.16,11.58,11.58,0,0,0-1.13-3.14,5.91,5.91,0,0,0-5.77-3.64c-4.92,0-9.85-.17-14.75.23-6.17.5-12.36.85-18.54,1.29-3.54.25-7.11.13-10.66.3-3.8.18-7.59.14-11.39.16a161.19,161.19,0,0,1-18.69-.52c-6.51-.72-13-2-18.64-5.64a32.93,32.93,0,0,1-6.23-5.59c-2.8-3.05-4.29-6.8-5.85-10.53a25,25,0,0,1-1.71-6.1,29,29,0,0,1,1-13.37c2.5-7.57,7.73-12.64,14.68-16.26A24.06,24.06,0,0,1,760.68,703c4.64.62,8.41,2.77,10.06,7.54a11,11,0,0,1-3.65,12.36c-1.28.95-2.55,1.92-3.75,3s-.93,1.6.39,2.3c3.39,1.82,7.14,1.9,10.8,2.33a89.46,89.46,0,0,1,11.59,1.83,40.23,40.23,0,0,1,9.77,3.52c2.72,1.51,5.61,2.73,7.93,4.87.36.33.8.65,1.28.29s.14-.8,0-1.22a6.48,6.48,0,0,1-.19-1.3c0-4.12-.08-8.24,0-12.35a134.23,134.23,0,0,1,2.33-22.5,83.07,83.07,0,0,1,2.59-10.47c1.63-5,3.24-10,5.8-14.68a79.67,79.67,0,0,1,6.67-10.22c1.66-2.15,3.28-4.33,5-6.41,1.89-2.27,3.89-4.44,5.75-6.74a91.91,91.91,0,0,0,5.88-8.44,61.81,61.81,0,0,0,6.71-14.92,36.85,36.85,0,0,0,1.5-8.71c.07-1.17-.33-1.54-1.59-1.54a25.16,25.16,0,0,1-7-.58,18.27,18.27,0,0,1-5.5-2.28,10.57,10.57,0,0,1-4.71-8.7,15,15,0,0,1,3.86-10.65,17,17,0,0,1,6.62-4.55,33.64,33.64,0,0,1,6.64-2,36,36,0,0,1,4.53-.28c.56,0,1.12.06,1.68.09,2.46.11,2.56-.11,2-2.45a10.46,10.46,0,0,1,0-6.49c1.17-3,3.66-4.14,6.7-4.46A26.53,26.53,0,0,1,871,580.4a2.11,2.11,0,0,0,2.29-.59c2.86-2.87,6.49-4.17,10.35-4.79a34.33,34.33,0,0,1,10.14,0,56.51,56.51,0,0,1,8.09,1.57,100.68,100.68,0,0,1,11.22,4.19c3,1.26,5.91,2.61,8.76,4.11a46.16,46.16,0,0,1,9.44,6.11c.77.69,1.67,1.21,2.41,2,2.25,2.32,2.42,5.21,2.37,8.16a5.26,5.26,0,0,1-.7,3.23,1.91,1.91,0,0,0-.11,1.41c.41,3.32-1,5.86-3.53,7.8-1.89,1.46-4,2.64-5.93,4.06a19.34,19.34,0,0,0-4.64,4.79,44.72,44.72,0,0,0-4.34,7.57,26.71,26.71,0,0,0-1.44,7.26c-.31,2.53-.31,5.1-.43,7.65a60.3,60.3,0,0,0,.55,10c.06.52.2,1,.23,1.54a2.76,2.76,0,0,0,2.22,2.64,35,35,0,0,1,5.18,1.88c3,1.47,3.95,4.6,3.45,7.49a3.8,3.8,0,0,1-2.53,2.69,1.64,1.64,0,0,1-1.95-.55c-.43-.52-.8-1.1-1.19-1.65-.22-.3-.47-.61-.88-.4a.74.74,0,0,0-.31.94,3,3,0,0,0,.4.86c3,4.33-.3,9.06-4.21,10a7.71,7.71,0,0,1-1.18.2A1.89,1.89,0,0,1,913,680c-.59-.72-.61-3.93,0-4.69.14-.19.3-.38.43-.58a.88.88,0,0,0,.16-1,.93.93,0,0,0-1.06-.35,2.69,2.69,0,0,0-.8.25c-1.92,1-3.88,1.89-5.73,3a4.71,4.71,0,0,0-1.74,3c-1,3.62-2,7.25-3,10.87-1.37,4.89-2.65,9.8-4.21,14.63a174,174,0,0,1-7.5,19.66,78.6,78.6,0,0,1-9.63,16,36.13,36.13,0,0,0-5.12,7.79,16.91,16.91,0,0,0-1.2,7.52c0,.85.59,1.24,1.45,1.27C877.51,757.39,880,757.52,882.45,757.63Z" transform="translate(-729.97 -574.66)"/></svg>