<?xml version="1.0" encoding="utf-8"?>
<!-- Generator: Adobe Illustrator 21.0.0, SVG Export Plug-In . SVG Version: 6.00 Build 0)  -->
<svg version="1.1" id="Layer_1" xmlns="http://www.w3.org/2000/svg" xmlns:xlink="http://www.w3.org/1999/xlink" x="0px" y="0px"
	 viewBox="0 0 206.1 202.4" style="enable-background:new 0 0 206.1 202.4;" xml:space="preserve">
<style type="text/css">
	.st0{fill:#E2A298;}
</style>
<title>mish-active</title>
<path class="st0" d="M152.5,183c3,0.1,6.1-0.5,9.1-0.5c1.9,0,3.8-0.3,5.6,0.4c1.4,0.5,2.5,1.4,3.4,2.6c0.7,0.9,0.5,2.1-0.3,2.8
	c-0.5,0.4-1.1,0.5-1.7,0.4c-2.5-0.1-4.9,0-7.4,0.3c-4.9,0.3-9.8,0.3-14.7-0.1c-2.1-0.2-4.1-0.3-6,0.8c-0.9,0.6-1.7,1.4-2.3,2.3
	c-0.4,0.5,0.3,0.9,0.8,0.8c2.3,0,4.7,0.2,7,0.6c6.3,0.6,12.5,0.3,18.8,0.8c1,0.1,2,0.3,2.9,0.7c1.5,0.7,2.4,2.3,2.2,4
	c-0.2,1.2-0.7,1.5-1.8,1.3c-0.9-0.2-1.8-0.5-2.7-0.6c-0.7-0.2-1.5,0.1-1.7,0.8c0,0.1-0.1,0.2-0.1,0.3c-0.1,0.9-0.9,1.6-1.8,1.5
	c-0.1,0-0.1,0-0.2,0c-0.5,0-1-0.1-1.4-0.2c-3.8-1.2-7.8-1.5-11.7-2.4c-0.6-0.1-0.9,0.2-1.2,0.7c-1.2,2-2.5,2.5-4.7,1.8
	c-4.4-1.4-9-2.1-13.6-2c-4.1,0.2-8.2-0.2-12.1-1.2c-0.7-0.2-1.2-0.6-1.5-1.2c-0.7-1.3-1.2-2.7-1.5-4.2c-0.2-1.1-0.6-2.2-1.1-3.1
	c-1-2.3-3.3-3.8-5.8-3.6c-4.9,0-9.8-0.2-14.8,0.2c-6.2,0.5-12.4,0.8-18.5,1.3c-3.5,0.3-7.1,0.1-10.7,0.3c-3.8,0.2-7.6,0.1-11.4,0.2
	c-6.2,0.2-12.5,0-18.7-0.5c-6.5-0.7-13-2-18.6-5.6c-2.3-1.6-4.4-3.5-6.2-5.6c-2.8-3-4.3-6.8-5.8-10.5c-0.8-2-1.4-4-1.7-6.1
	c-0.7-4.5-0.4-9.1,1-13.4c2.5-7.6,7.7-12.6,14.7-16.3c4.5-2.3,9.7-3.2,14.7-2.4c4.6,0.6,8.4,2.8,10.1,7.5c1.6,4.5,0.1,9.5-3.7,12.4
	c-1.3,1-2.5,1.9-3.8,3s-0.9,1.6,0.4,2.3c3.4,1.8,7.1,1.9,10.8,2.3c3.9,0.4,7.8,1,11.6,1.8c3.4,0.7,6.7,1.9,9.8,3.5
	c2.7,1.5,5.6,2.7,7.9,4.9c0.4,0.3,0.8,0.7,1.3,0.3s0.1-0.8,0-1.2c-0.1-0.4-0.2-0.9-0.2-1.3c0-4.1-0.1-8.2,0-12.3
	c0.1-7.6,0.9-15.1,2.3-22.5c0.6-3.5,1.5-7,2.6-10.5c1.6-5,3.2-10,5.8-14.7c2-3.6,4.2-7,6.7-10.2c1.7-2.2,3.3-4.3,5-6.4
	c1.9-2.3,3.9-4.4,5.8-6.7c2.1-2.7,4.1-5.5,5.9-8.4c2.9-4.7,5.1-9.7,6.7-14.9c0.8-2.8,1.4-5.8,1.5-8.7c0.1-1.2-0.3-1.5-1.6-1.5
	c-2.3,0.1-4.7-0.1-7-0.6c-1.9-0.5-3.8-1.2-5.5-2.3c-2.9-1.9-4.7-5.2-4.7-8.7c-0.2-3.9,1.2-7.7,3.9-10.7c1.8-2,4.1-3.6,6.6-4.5
	c2.1-0.9,4.4-1.6,6.6-2c1.5-0.2,3-0.3,4.5-0.3c0.6,0,1.1,0.1,1.7,0.1c2.5,0.1,2.6-0.1,2-2.5c-0.7-2.1-0.7-4.4,0-6.5
	c1.2-3,3.7-4.1,6.7-4.5c3.6-0.3,7.2,0.1,10.6,1.2c0.8,0.3,1.7,0.1,2.3-0.6c2.9-2.9,6.5-4.2,10.3-4.8c3.4-0.5,6.8-0.5,10.1,0
	c2.7,0.3,5.4,0.9,8.1,1.6c3.8,1.2,7.6,2.6,11.2,4.2c3,1.3,5.9,2.6,8.8,4.1c3.4,1.6,6.6,3.7,9.4,6.1c0.8,0.7,1.7,1.2,2.4,2
	c2.3,2.3,2.4,5.2,2.4,8.2c0.1,1.1-0.1,2.3-0.7,3.2c-0.2,0.4-0.3,0.9-0.1,1.4c0.4,3.3-1,5.9-3.5,7.8c-1.9,1.5-4,2.6-5.9,4.1
	c-1.8,1.3-3.4,2.9-4.6,4.8c-1.7,2.4-3.1,4.9-4.3,7.6c-0.8,2.3-1.3,4.8-1.4,7.3c-0.3,2.5-0.3,5.1-0.4,7.7c-0.1,3.3,0.1,6.7,0.5,10
	c0.1,0.5,0.2,1,0.2,1.5c0,1.3,1,2.4,2.2,2.6c1.8,0.5,3.5,1.1,5.2,1.9c3,1.5,4,4.6,3.5,7.5c-0.3,1.3-1.3,2.3-2.5,2.7
	c-0.7,0.3-1.5,0.1-2-0.5c-0.4-0.5-0.8-1.1-1.2-1.7c-0.2-0.3-0.5-0.6-0.9-0.4c-0.3,0.2-0.5,0.6-0.3,0.9c0.1,0.3,0.2,0.6,0.4,0.9
	c3,4.3-0.3,9.1-4.2,10c-0.4,0.1-0.8,0.2-1.2,0.2c-0.6,0.1-1.3-0.1-1.7-0.6c-0.6-0.7-0.6-3.9,0-4.7c0.1-0.2,0.3-0.4,0.4-0.6
	c0.3-0.3,0.3-0.7,0.2-1c-0.2-0.3-0.7-0.5-1.1-0.3c-0.3,0-0.5,0.1-0.8,0.3c-1.9,1-3.9,1.9-5.7,3c-0.9,0.7-1.6,1.8-1.7,3
	c-1,3.6-2,7.3-3,10.9c-1.4,4.9-2.7,9.8-4.2,14.6c-2.1,6.7-4.6,13.3-7.5,19.7c-2.6,5.7-5.8,11.1-9.6,16c-2,2.4-3.8,5-5.1,7.8
	c-1,2.4-1.4,5-1.2,7.5c0,0.8,0.6,1.2,1.5,1.3C147.5,182.7,150,182.9,152.5,183z"/>
</svg>
