<svg width="718" height="330" viewBox="0 0 718 330" fill="none" xmlns="http://www.w3.org/2000/svg">
<g clip-path="url(#clip0)">
<path d="M383.501 223.227C383.501 245.861 399.826 255.885 399.826 255.885L365 264.857L330.174 255.884C330.174 255.884 346.498 245.861 346.498 223.227L365 214.255L383.501 223.227Z" fill="#F5D882"/>
<path d="M352.387 255.884C352.387 255.884 368.711 245.861 368.711 223.227L376.106 219.64L365 214.255L346.498 223.227C346.498 245.861 330.174 255.885 330.174 255.885L365 264.857L376.107 261.995L352.387 255.884Z" fill="#E6B932"/>
<path d="M313.31 181.513C313.212 181.513 313.114 181.511 313.016 181.508C290.824 180.834 271.939 175.435 256.887 165.459C243.823 156.8 234.18 144.697 229.735 131.376C223.713 113.333 227.824 95.2756 240.206 85.373C247.052 79.8993 255.889 77.3383 265.767 77.9722C275.745 78.611 286.622 82.4529 298.098 89.3906C302.599 92.1118 304.041 97.966 301.32 102.467C298.599 106.968 292.744 108.41 288.244 105.689C272.701 96.2912 259.528 94.309 252.102 100.247C246.023 105.108 244.335 114.961 247.801 125.347C256.533 151.512 287.512 161.681 313.594 162.472C318.851 162.631 322.983 167.022 322.824 172.279C322.666 177.438 318.435 181.513 313.31 181.513Z" fill="#D2B86E"/>
<path d="M416.69 181.513C416.787 181.513 416.885 181.511 416.984 181.508C439.175 180.834 458.06 175.435 473.113 165.459C486.177 156.8 495.82 144.696 500.266 131.375C506.287 113.332 502.177 95.2749 489.794 85.3723C482.949 79.8992 474.112 77.3376 464.234 77.9721C454.256 78.6109 443.379 82.4528 431.903 89.3905C427.402 92.1117 425.96 97.9659 428.681 102.467C431.402 106.968 437.257 108.41 441.757 105.689C457.3 96.291 470.473 94.3089 477.899 100.247C483.978 105.108 485.666 114.96 482.2 125.347C473.468 151.512 442.489 161.68 416.407 162.472C411.15 162.631 407.018 167.022 407.177 172.279C407.333 177.438 411.564 181.513 416.69 181.513Z" fill="#D2B86E"/>
<path d="M313.593 162.472C301.802 162.114 289.01 159.839 277.725 155.037C280.878 163.625 284.732 171.524 289.254 178.715C296.682 180.318 304.611 181.254 313.015 181.509C313.114 181.512 313.212 181.514 313.31 181.514C318.435 181.514 322.666 177.438 322.823 172.28C322.983 167.022 318.851 162.631 313.593 162.472Z" fill="#D19C03"/>
<path d="M301.32 102.466C304.041 97.9653 302.598 92.1111 298.098 89.3899C287.381 82.9114 277.187 79.1342 267.758 78.1429C267.449 83.5049 267.269 90.0109 267.459 97.2726C273.55 98.2505 280.61 101.074 288.244 105.688C292.744 108.41 298.599 106.968 301.32 102.466Z" fill="#D19C03"/>
<path d="M452.274 155.037C440.989 159.839 428.197 162.115 416.407 162.472C411.15 162.632 407.018 167.022 407.177 172.279C407.334 177.438 411.564 181.513 416.69 181.513C416.788 181.513 416.886 181.511 416.984 181.509C425.389 181.254 433.318 180.317 440.746 178.714C445.267 171.524 449.121 163.624 452.274 155.037Z" fill="#D19C03"/>
<path d="M428.68 102.465C431.401 106.967 437.256 108.409 441.756 105.687C449.39 101.071 456.45 98.2495 462.541 97.2716C462.731 90.0099 462.551 83.5045 462.242 78.1419C452.814 79.1338 442.619 82.9099 431.902 89.3889C427.401 92.1111 425.959 97.9654 428.68 102.465Z" fill="#D19C03"/>
<path d="M285.728 65.2669C285.728 65.2669 268.14 175.354 346.498 205.283H383.501C461.86 175.354 444.272 65.2669 444.272 65.2669L365 53.1235L285.728 65.2669Z" fill="#F5D882"/>
<path d="M307.941 65.2669L376.107 54.8253L365 53.124L285.728 65.2669C285.728 65.2669 268.14 175.354 346.498 205.283H368.711C290.353 175.354 307.941 65.2669 307.941 65.2669Z" fill="#E6B932"/>
<path d="M331.744 129.821C329.444 129.821 327.579 127.957 327.579 125.656V119.638C327.579 117.338 329.444 115.473 331.744 115.473C334.044 115.473 335.909 117.338 335.909 119.638V125.656C335.909 127.957 334.044 129.821 331.744 129.821Z" fill="#4A413A"/>
<path d="M398.256 129.821C395.956 129.821 394.091 127.957 394.091 125.656V119.638C394.091 117.338 395.956 115.473 398.256 115.473C400.556 115.473 402.421 117.338 402.421 119.638V125.656C402.421 127.957 400.556 129.821 398.256 129.821Z" fill="#4A413A"/>
<path d="M365 133.034C360.599 133.034 356.464 131.192 353.656 127.979C352.142 126.247 352.319 123.616 354.051 122.102C355.783 120.588 358.414 120.764 359.927 122.496C361.154 123.899 363.002 124.704 364.999 124.704C366.997 124.704 368.845 123.899 370.071 122.496C371.586 120.764 374.217 120.588 375.948 122.102C377.68 123.616 377.857 126.247 376.343 127.979C373.535 131.192 369.401 133.034 365 133.034Z" fill="#4A413A"/>
<path d="M383.501 205.282H346.498C341.543 205.282 337.526 209.299 337.526 214.255C337.526 219.21 341.543 223.227 346.498 223.227H383.501C388.456 223.227 392.473 219.21 392.473 214.255C392.473 209.3 388.456 205.282 383.501 205.282Z" fill="#D2B86E"/>
<path d="M359.74 214.255C359.74 209.3 363.757 205.282 368.712 205.282H346.499C341.544 205.282 337.527 209.299 337.527 214.255C337.527 219.21 341.544 223.227 346.499 223.227H368.712C363.756 223.227 359.74 219.21 359.74 214.255Z" fill="#D19C03"/>
<path d="M399.826 255.884H330.174C325.219 255.884 321.202 259.901 321.202 264.856C321.202 269.811 325.218 273.829 330.174 273.829L365 286.427L399.826 273.829C404.781 273.829 408.798 269.811 408.798 264.856C408.798 259.902 404.781 255.884 399.826 255.884Z" fill="#D2B86E"/>
<path d="M352.387 273.829C347.432 273.829 343.415 269.813 343.415 264.857C343.415 259.902 347.432 255.884 352.387 255.884H330.174C325.219 255.884 321.202 259.901 321.202 264.857C321.202 269.812 325.219 273.829 330.174 273.829L365 286.427L376.107 282.409L352.387 273.829Z" fill="#D19C03"/>
<path d="M444.272 40.9805H285.728C279.021 40.9805 273.584 46.417 273.584 53.124C273.584 59.8305 279.021 65.2674 285.728 65.2674H444.272C450.979 65.2674 456.416 59.831 456.416 53.124C456.415 46.417 450.978 40.9805 444.272 40.9805Z" fill="#D2B86E"/>
<path d="M295.798 53.1234C295.798 46.417 301.234 40.98 307.941 40.98H285.728C279.022 40.98 273.585 46.4164 273.585 53.1234C273.585 59.8299 279.021 65.2669 285.728 65.2669H307.941C301.234 65.2669 295.798 59.8299 295.798 53.1234Z" fill="#D19C03"/>
<path d="M417.509 273.829H312.49C309.153 273.829 306.448 276.535 306.448 279.872V306.977C306.448 310.314 309.153 313.02 312.49 313.02H417.509C420.847 313.02 423.552 310.314 423.552 306.977V279.872C423.552 276.535 420.847 273.829 417.509 273.829Z" fill="#E88181"/>
<path d="M324.218 306.977V279.872C324.218 276.535 326.923 273.829 330.261 273.829H312.49C309.153 273.829 306.447 276.535 306.447 279.872V306.977C306.447 310.314 309.153 313.02 312.49 313.02H330.261C326.923 313.02 324.218 310.314 324.218 306.977Z" fill="#8C4646"/>
<path d="M388.021 286.428H341.976V300.423H388.021V286.428Z" fill="#EFEDEE"/>
</g>
<g clip-path="url(#clip1)">
<path d="M133.598 34.6819L111.429 47.6796L89.4059 34.4369C87.8639 33.5095 85.9605 34.8764 86.3465 36.6339L91.8576 61.7342L72.4573 78.5872C71.0989 79.7673 71.8106 81.9998 73.6012 82.1759L99.1761 84.6911L109.21 108.35C109.912 110.006 112.255 110.019 112.976 108.371L123.271 84.8247L148.872 82.5935C150.665 82.4372 151.401 80.2127 150.056 79.0177L130.844 61.9504L136.633 36.9126C137.038 35.1596 135.15 33.7718 133.598 34.6819Z" fill="#FFDC64"/>
<path d="M89.4059 34.4369C87.8639 33.5095 85.9605 34.8764 86.3465 36.6339L91.8576 61.7342L72.4573 78.5872C71.0989 79.7673 71.8106 81.9998 73.6012 82.1759L99.1761 84.6911L109.21 108.35C109.912 110.006 112.255 110.019 112.976 108.371L115.274 103.115C99.4393 79.8945 98.5022 56.2077 100.295 40.9848L89.4059 34.4369Z" fill="#FFC850"/>
</g>
<g clip-path="url(#clip2)">
<path d="M592.598 243.682L570.429 256.68L548.406 243.437C546.864 242.51 544.961 243.876 545.346 245.634L550.858 270.734L531.457 287.587C530.099 288.767 530.811 291 532.601 291.176L558.176 293.691L568.21 317.35C568.912 319.006 571.255 319.019 571.976 317.371L582.271 293.825L607.872 291.593C609.665 291.437 610.401 289.213 609.056 288.018L589.844 270.95L595.633 245.913C596.038 244.16 594.15 242.772 592.598 243.682Z" fill="#FFDC64"/>
<path d="M548.406 243.437C546.864 242.51 544.961 243.876 545.346 245.634L550.858 270.734L531.457 287.587C530.099 288.767 530.811 291 532.601 291.176L558.176 293.691L568.21 317.35C568.912 319.006 571.255 319.019 571.976 317.371L574.274 312.115C558.439 288.894 557.502 265.208 559.295 249.985L548.406 243.437Z" fill="#FFC850"/>
</g>
<g clip-path="url(#clip3)">
<path d="M709.788 203.193L694.981 195.877L694.317 179.373C694.27 178.218 692.864 177.678 692.057 178.506L680.522 190.328L664.621 185.859C663.508 185.546 662.56 186.717 663.098 187.741L670.777 202.364L661.614 216.106C660.972 217.068 661.793 218.331 662.933 218.136L679.213 215.351L689.45 228.313C690.167 229.22 691.622 228.83 691.789 227.686L694.171 211.342L709.662 205.611C710.747 205.21 710.825 203.706 709.788 203.193Z" fill="#FFDC64"/>
<path d="M694.317 179.373C694.27 178.218 692.864 177.678 692.057 178.506L680.522 190.328L664.621 185.859C663.508 185.546 662.56 186.717 663.098 187.741L670.777 202.364L661.614 216.106C660.972 217.068 661.793 218.331 662.933 218.136L666.566 217.514C673.446 200.812 685.836 191.945 694.645 187.533L694.317 179.373Z" fill="#FFC850"/>
</g>
<g clip-path="url(#clip4)">
<path d="M87.1438 193.069L66.8369 221.751L31.9343 217.65C29.4904 217.363 27.8882 220.138 29.3589 222.111L50.3618 250.287L35.676 282.214C34.6477 284.45 36.7918 286.831 39.1224 286.042L72.4099 274.774L98.2365 298.607C100.045 300.276 102.972 298.972 102.942 296.512L102.512 261.372L133.159 244.174C135.305 242.97 134.97 239.783 132.621 239.052L99.0675 228.602L92.182 194.14C91.7 191.727 88.5657 191.061 87.1438 193.069Z" fill="#FFDC64"/>
<path d="M31.9343 217.65C29.4904 217.363 27.8882 220.138 29.3589 222.111L50.3618 250.287L35.676 282.214C34.6477 284.45 36.7918 286.831 39.1224 286.042L72.4099 274.774L98.2365 298.607C100.045 300.276 102.972 298.972 102.942 296.512L102.846 288.669C70.0366 268.649 55.5299 239.658 49.192 219.678L31.9343 217.65Z" fill="#FFC850"/>
</g>
<g clip-path="url(#clip5)">
<path d="M548.04 8.87389L539.875 20.4065L525.841 18.7577C524.858 18.6422 524.214 19.7581 524.805 20.5513L533.25 31.8807L527.345 44.7182C526.932 45.6171 527.794 46.5746 528.731 46.2574L542.115 41.7267L552.5 51.3096C553.227 51.9806 554.404 51.4566 554.392 50.4672L554.219 36.3378L566.542 29.4228C567.405 28.9386 567.27 27.6572 566.326 27.363L552.834 23.1612L550.066 9.30444C549.872 8.33425 548.611 8.06638 548.04 8.87389Z" fill="#FFDC64"/>
<path d="M525.841 18.7577C524.858 18.6422 524.214 19.7581 524.805 20.5513L533.25 31.8807L527.345 44.7182C526.932 45.6171 527.794 46.5746 528.731 46.2574L542.115 41.7267L552.5 51.3096C553.227 51.9806 554.404 51.4566 554.392 50.4672L554.353 47.3136C541.161 39.2636 535.328 27.6069 532.78 19.5729L525.841 18.7577Z" fill="#FFC850"/>
</g>
<defs>
<clipPath id="clip0">
<rect x="227" y="39" width="276" height="276" fill="white"/>
</clipPath>
<clipPath id="clip1">
<rect x="54" y="56.0798" width="79" height="79" transform="rotate(-35.6822 54 56.0798)" fill="white"/>
</clipPath>
<clipPath id="clip2">
<rect x="513" y="265.08" width="79" height="79" transform="rotate(-35.6822 513 265.08)" fill="white"/>
</clipPath>
<clipPath id="clip3">
<rect x="670.192" y="168" width="50.7749" height="50.7749" transform="rotate(20.9955 670.192 168)" fill="white"/>
</clipPath>
<clipPath id="clip4">
<rect y="264.56" width="108.034" height="108.034" transform="rotate(-60 0 264.56)" fill="white"/>
</clipPath>
<clipPath id="clip5">
<rect x="513" y="37.6196" width="43.4394" height="43.4394" transform="rotate(-60 513 37.6196)" fill="white"/>
</clipPath>
</defs>
</svg>
